<svg viewBox="0 0 96 96" xmlns="http://www.w3.org/2000/svg" xmlns:xlink="http://www.w3.org/1999/xlink" id="Icons_ArrowUp" overflow="hidden"><style>
.MsftOfcResponsive_Stroke_ffff00 {
 stroke:#FFFF00; 
}
</style>
<path d="M51.031 88.951 51.031 14.192 59.931 23.092C61.0908 24.2518 62.9712 24.2518 64.131 23.092 65.2908 21.9322 65.2908 20.0518 64.131 18.892L50.131 4.9C49.0264 3.7402 47.1908 3.69543 46.031 4.8 45.9969 4.83252 45.9635 4.86586 45.931 4.9L31.941 18.89C30.7812 19.9946 30.7364 21.8302 31.841 22.99 31.8735 23.0241 31.9069 23.0575 31.941 23.09 33.0456 24.2498 34.8812 24.2946 36.041 23.19 36.0751 23.1575 36.1085 23.1241 36.141 23.09L45.036 14.195 45.036 88.951C45.036 90.6078 46.3791 91.951 48.036 91.951 49.6929 91.951 51.036 90.6078 51.036 88.951Z" class="MsftOfcResponsive_Stroke_ffff00" stroke="#FFFF00" stroke-width="9.14286" fill="#FFFF00"/></svg>